<svg xmlns="http://www.w3.org/2000/svg" viewBox="0 0 72.1 98.7"><title>Ресурс 32</title><g id="Слой_2" data-name="Слой 2"><g id="Слой_1-2" data-name="Слой 1"><path d="M22.12,95.48a6.41,6.41,0,0,1-5.6,3.22H6.3a5.86,5.86,0,0,1-4.48-2A6.26,6.26,0,0,1,0,92.12V5.6Q0,0,5.18,0h9a5.14,5.14,0,0,1,3.78,1.54A5.77,5.77,0,0,1,19.46,5.6V58L50.12,3.22A6.41,6.41,0,0,1,55.72,0H65.8a5.86,5.86,0,0,1,4.48,2A6.26,6.26,0,0,1,72.1,6.58V93.1a5.82,5.82,0,0,1-1.54,4.06,5.14,5.14,0,0,1-3.78,1.54H58q-5.33,0-5.32-5.6V40.88Z"/></g></g></svg>