<svg xmlns="http://www.w3.org/2000/svg" viewBox="0 0 103.32 102.06"><title>Ресурс 9</title><g id="Слой_2" data-name="Слой 2"><g id="Слой_1-2" data-name="Слой 1"><path d="M93.24,11.2a36.89,36.89,0,0,1,10.08,25.9V64.82a37.08,37.08,0,0,1-10.08,26,33.19,33.19,0,0,1-25.34,11.2,33.19,33.19,0,0,1-25.34-11.2,37.08,37.08,0,0,1-10.08-26v-3.5H20.58V94.78A5.3,5.3,0,0,1,19,98.7a4.94,4.94,0,0,1-3.78,1.68H5.32A4.94,4.94,0,0,1,1.54,98.7,5.3,5.3,0,0,1,0,94.78V7.28A5.3,5.3,0,0,1,1.54,3.36,4.94,4.94,0,0,1,5.32,1.68h9.94A4.94,4.94,0,0,1,19,3.36a5.3,5.3,0,0,1,1.54,3.92V40.74h11.9V37.1A36.63,36.63,0,0,1,42.7,11.2Q53.07,0,67.9,0T93.24,11.2ZM82.88,37.1a16.38,16.38,0,0,0-4.2-11.2,13.94,13.94,0,0,0-10.78-5,13.52,13.52,0,0,0-10.64,5,16.43,16.43,0,0,0-4.34,11.2V64.82A16.43,16.43,0,0,0,57.26,76,13.66,13.66,0,0,0,67.9,81.2a13.94,13.94,0,0,0,10.78-5,16.92,16.92,0,0,0,4.2-11.34Z"/></g></g></svg>