<svg xmlns="http://www.w3.org/2000/svg" viewBox="0 0 61.46 98.7"><title>Ресурс 11</title><g id="Слой_2" data-name="Слой 2"><g id="Слой_1-2" data-name="Слой 1"><path d="M2.24,96.18A8.59,8.59,0,0,1,0,90.3V5.6Q0,0,5.18,0h9.94Q20.3,0,20.3,5.6V33H30A29.45,29.45,0,0,1,52.36,43a32.32,32.32,0,0,1,9.1,23,32.16,32.16,0,0,1-9.1,22.82Q43,98.71,30,98.7H8A7.62,7.62,0,0,1,2.24,96.18ZM20.3,78.12h9a10.52,10.52,0,0,0,8.26-3.64A11.63,11.63,0,0,0,41,65.94a12.11,12.11,0,0,0-3.5-8.68,11.08,11.08,0,0,0-8.26-3.64h-9Z"/></g></g></svg>