<svg xmlns="http://www.w3.org/2000/svg" viewBox="0 0 70.98 100.38"><title>Ресурс 21</title><g id="Слой_2" data-name="Слой 2"><g id="Слой_1-2" data-name="Слой 1"><path d="M69.44,1.54A5.3,5.3,0,0,1,71,5.46V67.9h-.14a34.68,34.68,0,0,1-10.5,22,35.3,35.3,0,0,1-25.48,10.5,39.58,39.58,0,0,1-19-4.9A38.38,38.38,0,0,1,1.4,82.32q-3.22-5.32,1.68-9l7-5.18a5.08,5.08,0,0,1,3.5-1.12,6.37,6.37,0,0,1,5.18,2.38q6.72,9.8,16.1,9.8a13.62,13.62,0,0,0,10.36-4.48,14.71,14.71,0,0,0,4.06-9.52v-2.1A34.33,34.33,0,0,1,35.56,65.8a32.24,32.24,0,0,1-26-12.18Q0,42.28,0,26V5.46A5.3,5.3,0,0,1,1.54,1.54,4.68,4.68,0,0,1,5.18,0h9.94A5.14,5.14,0,0,1,18.9,1.54a5.61,5.61,0,0,1,1.54,3.92V26.74q0,8.27,4.06,13a13.85,13.85,0,0,0,11.06,4.9A13.33,13.33,0,0,0,46.9,39.2q3.65-4.91,3.64-12.46V5.46a5.5,5.5,0,0,1,1-3.22l.56-.7A5.14,5.14,0,0,1,55.86,0H65.8A4.68,4.68,0,0,1,69.44,1.54Z"/></g></g></svg>