<svg xmlns="http://www.w3.org/2000/svg" viewBox="0 0 67.2 98.7"><title>Ресурс 22</title><g id="Слой_2" data-name="Слой 2"><g id="Слой_1-2" data-name="Слой 1"><path d="M67.2,15.26a5.3,5.3,0,0,1-1.54,3.92,4.94,4.94,0,0,1-3.78,1.68H43.82V93.1a5.77,5.77,0,0,1-1.54,4.06A5.14,5.14,0,0,1,38.5,98.7H28.7q-5.32,0-5.32-5.6V20.86H5.32a4.94,4.94,0,0,1-3.78-1.68A5.3,5.3,0,0,1,0,15.26V5.6A5.77,5.77,0,0,1,1.54,1.54,5.14,5.14,0,0,1,5.32,0H61.88a5.14,5.14,0,0,1,3.78,1.54A5.77,5.77,0,0,1,67.2,5.6Z"/></g></g></svg>