<svg xmlns="http://www.w3.org/2000/svg" viewBox="0 0 105.72 99.82"><title>Ресурс 28</title><g id="Слой_2" data-name="Слой 2"><g id="Слой_1-2" data-name="Слой 1"><path d="M25.91,44.38,20.73,93.52q-1,5.46-6,5.46H5.47A5.25,5.25,0,0,1,1.41,97.3,7,7,0,0,1,0,92.68L10.37,6.44Q10.79,0,17.09,0H28.43q4.91,0,6.3,4.9L53.35,64.82,71.83,4.76A6.1,6.1,0,0,1,78.27,0H88.49q6.44,0,6.86,6.44l10.36,86.24a7,7,0,0,1-1.4,4.62A5,5,0,0,1,100.25,99H90.59a6,6,0,0,1-6-5.6L79.25,44.24,63.71,94.92q-1.4,4.9-6.3,4.9H47.89a6,6,0,0,1-6.3-4.76Z"/></g></g></svg>