<svg xmlns="http://www.w3.org/2000/svg" viewBox="0 0 92.68 99.4"><title>Ресурс 16</title><g id="Слой_2" data-name="Слой 2"><g id="Слой_1-2" data-name="Слой 1"><path d="M91.14,1.54A5.77,5.77,0,0,1,92.68,5.6V93.8a5.3,5.3,0,0,1-1.54,3.92,4.94,4.94,0,0,1-3.78,1.68h-82A4.84,4.84,0,0,1,2,98.14l-.42-.42A5.3,5.3,0,0,1,0,93.8V5.6A5.77,5.77,0,0,1,1.54,1.54,5.14,5.14,0,0,1,5.32,0h9.94q5.18,0,5.18,5.6V78.4H36.12V5.74q0-5.6,5.18-5.6h9.94A5.14,5.14,0,0,1,55,1.68a5.77,5.77,0,0,1,1.54,4.06V78.4H72.24V5.6Q72.24,0,77.42,0h9.94A5.14,5.14,0,0,1,91.14,1.54Z"/></g></g></svg>