<svg xmlns="http://www.w3.org/2000/svg" viewBox="0 0 63.28 98.7"><title>Ресурс 3</title><g id="Слой_2" data-name="Слой 2"><g id="Слой_1-2" data-name="Слой 1"><path d="M54.88,89.32A27.89,27.89,0,0,1,33.6,98.7H8a7.62,7.62,0,0,1-5.74-2.52A8.59,8.59,0,0,1,0,90.3V8.4A8,8,0,0,1,2.38,2.52,6.93,6.93,0,0,1,8,0H29.82A26.38,26.38,0,0,1,49.7,8.54a28.46,28.46,0,0,1,8.12,20.3,24,24,0,0,1-5.88,15.82Q63.28,51.8,63.28,67.48A31.08,31.08,0,0,1,54.88,89.32ZM35,22.82a8.84,8.84,0,0,0-6.3-2.52H20.16V37.66H28.7a9,9,0,0,0,6.16-2.52,8.1,8.1,0,0,0,2.8-6A8.61,8.61,0,0,0,35,22.82ZM20.16,57.26v21H32.9a9.29,9.29,0,0,0,7.42-3.08A11.06,11.06,0,0,0,43,67.48,9.82,9.82,0,0,0,32.9,57.26Z"/></g></g></svg>