<svg xmlns="http://www.w3.org/2000/svg" viewBox="0 0 120.68 98.84"><title>Ресурс 34</title><g id="Слой_2" data-name="Слой 2"><g id="Слой_1-2" data-name="Слой 1"><path d="M119.56,90.44a5.38,5.38,0,0,1,1.12,3.22q0,5.18-5.18,5.18L104,98.7a6.68,6.68,0,0,1-5.74-2.94l-27-36h-.7V93.24A5.61,5.61,0,0,1,69,97.16a5.14,5.14,0,0,1-3.78,1.54h-9.8a6.34,6.34,0,0,1-2.24-.42,5.89,5.89,0,0,1-1.54-1.12,5.68,5.68,0,0,1-1.4-2.8l-.14-.28V59.78h-.7l-27,36a6.68,6.68,0,0,1-5.74,2.94l-11.48.14Q0,98.84,0,93.66a5.38,5.38,0,0,1,1.12-3.22L32.2,48.86,1.26,8.54A6.46,6.46,0,0,1,.14,5.18Q.14,0,5.32,0h11.2A6.81,6.81,0,0,1,22.4,2.94L50,39.48h.14V5.6a5.77,5.77,0,0,1,1.54-4.06A5.14,5.14,0,0,1,55.44,0h9.8a5.19,5.19,0,0,1,1.68.28A5.19,5.19,0,0,1,70.56,5V39.48h.14L98.28,2.94A6.81,6.81,0,0,1,104.16,0h11.2q5.17,0,5.18,5.18a6.46,6.46,0,0,1-1.12,3.36L88.48,48.86Z"/></g></g></svg>