<svg xmlns="http://www.w3.org/2000/svg" viewBox="0 0 63.42 102.06"><title>Ресурс 23</title><g id="Слой_2" data-name="Слой 2"><g id="Слой_1-2" data-name="Слой 1"><path d="M61.6,81.06a6.75,6.75,0,0,1,1.82,4.48,6.14,6.14,0,0,1-1.26,3.78l-.14.14a34.11,34.11,0,0,1-27.3,12.6Q20,102.06,9.8,90.72A37.83,37.83,0,0,1,0,64.82V37.1A37.5,37.5,0,0,1,9.94,11.2Q20.16,0,34.72,0,51.81,0,61.88,12.46a5.82,5.82,0,0,1,1.4,4.06,7.66,7.66,0,0,1-1.54,4.34L56.14,27a5.49,5.49,0,0,1-3.92,1.82,4.32,4.32,0,0,1-2-.42A4.74,4.74,0,0,1,48,26.74a16.92,16.92,0,0,0-13.3-5.88,12.7,12.7,0,0,0-9.94,4.9A16.61,16.61,0,0,0,20.44,37.1V64.82A16.78,16.78,0,0,0,24.78,76.3a12.7,12.7,0,0,0,9.94,4.9A16.92,16.92,0,0,0,48,75.32a4.74,4.74,0,0,1,2.24-1.68,4,4,0,0,1,1.82-.42,5.64,5.64,0,0,1,1.82.28A7.34,7.34,0,0,1,56.14,75Z"/></g></g></svg>