<svg xmlns="http://www.w3.org/2000/svg" viewBox="0 0 108.22 112.56"><title>Ресурс 15</title><g id="Слой_2" data-name="Слой 2"><g id="Слой_1-2" data-name="Слой 1"><path d="M106.68,80.5a5.3,5.3,0,0,1,1.54,3.92v22.82a5.14,5.14,0,0,1-1.54,3.78,5.77,5.77,0,0,1-4.06,1.54h-9A5.3,5.3,0,0,1,89.74,111a4.94,4.94,0,0,1-1.68-3.78V99.4H5.32a4.94,4.94,0,0,1-3.78-1.68A5.3,5.3,0,0,1,0,93.8V5.6A5.77,5.77,0,0,1,1.54,1.54,5.14,5.14,0,0,1,5.32,0h9.94q5.18,0,5.18,5.6V78.4H36.12V5.74q0-5.6,5.18-5.6h9.94A5.14,5.14,0,0,1,55,1.68a5.77,5.77,0,0,1,1.54,4.06V78.4H72.24V5.6Q72.24,0,77.42,0h9.94a5.14,5.14,0,0,1,3.78,1.54A5.77,5.77,0,0,1,92.68,5.6V78.82H103A4.51,4.51,0,0,1,106.68,80.5Z"/></g></g></svg>