<svg xmlns="http://www.w3.org/2000/svg" viewBox="0 0 70.56 98.84"><title>Ресурс 30</title><g id="Слой_2" data-name="Слой 2"><g id="Слой_1-2" data-name="Слой 1"><path d="M5.32,98.7a5.14,5.14,0,0,1-3.78-1.54A5.61,5.61,0,0,1,0,93.24V5.6A5.77,5.77,0,0,1,1.54,1.54,5.14,5.14,0,0,1,5.32,0h9.8A5.14,5.14,0,0,1,18.9,1.54,5.77,5.77,0,0,1,20.44,5.6V39.48h.14L48.16,2.94A6.81,6.81,0,0,1,54,0h11.2q5.17,0,5.18,5.18A6.46,6.46,0,0,1,69.3,8.54L38.36,48.86,69.44,90.44a5.38,5.38,0,0,1,1.12,3.22q0,5.18-5.18,5.18L53.9,98.7a6.68,6.68,0,0,1-5.74-2.94l-27-36h-.7V93.24a5.61,5.61,0,0,1-1.54,3.92,5.14,5.14,0,0,1-3.78,1.54Z"/></g></g></svg>