<svg xmlns="http://www.w3.org/2000/svg" viewBox="0 0 55.44 126.42"><title>Ресурс 35</title><g id="Слой_2" data-name="Слой 2"><g id="Слой_1-2" data-name="Слой 1"><path d="M20.44,48.58V65.1H41.86a5.14,5.14,0,0,1,3.78,1.54,5.61,5.61,0,0,1,1.54,3.92v9.38a5.61,5.61,0,0,1-1.54,3.92,5.14,5.14,0,0,1-3.78,1.54H20.44v20.16H50.12a4.94,4.94,0,0,1,3.78,1.68,5.3,5.3,0,0,1,1.54,3.92v9.66a5.77,5.77,0,0,1-1.54,4.06,5.14,5.14,0,0,1-3.78,1.54H8a7.62,7.62,0,0,1-5.74-2.52A8.59,8.59,0,0,1,0,118V36.12a8,8,0,0,1,2.38-5.88A6.93,6.93,0,0,1,8,27.72H50.12a5.14,5.14,0,0,1,3.78,1.54,5.77,5.77,0,0,1,1.54,4.06V43A5.3,5.3,0,0,1,53.9,46.9a4.94,4.94,0,0,1-3.78,1.68ZM6.58,18.2a2.6,2.6,0,0,1-2.94-2.94V2.94A2.6,2.6,0,0,1,6.58,0H17.5a2.6,2.6,0,0,1,2.94,2.94V15.26A2.6,2.6,0,0,1,17.5,18.2Zm32.62,0a2.6,2.6,0,0,1-2.94-2.94V2.94A2.6,2.6,0,0,1,39.2,0H50.12a2.6,2.6,0,0,1,2.94,2.94V15.26a2.6,2.6,0,0,1-2.94,2.94Z"/></g></g></svg>