<svg xmlns="http://www.w3.org/2000/svg" viewBox="0 0 99.26 112.56"><title>Ресурс 7</title><g id="Слой_2" data-name="Слой 2"><g id="Слой_1-2" data-name="Слой 1"><path d="M97.72,80.5a5.3,5.3,0,0,1,1.54,3.92v22.82A5.14,5.14,0,0,1,97.72,111a5.77,5.77,0,0,1-4.06,1.54h-9A5.3,5.3,0,0,1,80.78,111a4.94,4.94,0,0,1-1.68-3.78V99.4H20.16v7.84A5.14,5.14,0,0,1,18.62,111a5.77,5.77,0,0,1-4.06,1.54h-9A5.3,5.3,0,0,1,1.68,111,4.94,4.94,0,0,1,0,107.24V84.42q0-5.6,5.18-5.6H15.54l23-74.06A6,6,0,0,1,44.8,0h9.66A6.1,6.1,0,0,1,60.9,4.76L83.72,78.82H94.08A4.51,4.51,0,0,1,97.72,80.5Zm-60.9-1.68H62.58L49.7,35Z"/></g></g></svg>