<svg xmlns="http://www.w3.org/2000/svg" viewBox="0 0 87.08 98.7"><title>Ресурс 20</title><g id="Слой_2" data-name="Слой 2"><g id="Слой_1-2" data-name="Слой 1"><path d="M87.08,51A37.08,37.08,0,0,1,77,77,33.65,33.65,0,0,1,53.76,88.2v4.9A5.3,5.3,0,0,1,52.22,97a4.94,4.94,0,0,1-3.78,1.68H38.5A4.94,4.94,0,0,1,34.72,97a5.3,5.3,0,0,1-1.54-3.92V88.2A33.17,33.17,0,0,1,10.08,77,37.08,37.08,0,0,1,0,51V47.18A36.6,36.6,0,0,1,10.22,21.7a33,33,0,0,1,23-11.2V5.6a5.3,5.3,0,0,1,1.54-3.92A4.94,4.94,0,0,1,38.5,0h9.94a4.94,4.94,0,0,1,3.78,1.68A5.3,5.3,0,0,1,53.76,5.6v4.9Q67.2,11.34,77,21.7A36.67,36.67,0,0,1,86.94,47Zm-62.3,11.2a14.31,14.31,0,0,0,8.4,5V31.5a13.14,13.14,0,0,0-8.4,4.9,16.43,16.43,0,0,0-4.34,11.2V51A16.43,16.43,0,0,0,24.78,62.16Zm29,5a14.24,14.24,0,0,0,8.68-4.9A16.92,16.92,0,0,0,66.64,51V47.6a16.38,16.38,0,0,0-4.2-11.2,14.24,14.24,0,0,0-8.68-4.9Z"/></g></g></svg>