<svg xmlns="http://www.w3.org/2000/svg" viewBox="0 0 76.58 98.7"><title>Ресурс 14</title><g id="Слой_2" data-name="Слой 2"><g id="Слой_1-2" data-name="Слой 1"><path d="M67.48,43a32.32,32.32,0,0,1,9.1,23,32.16,32.16,0,0,1-9.1,22.82q-9.38,9.94-22.4,9.94h-22a7.62,7.62,0,0,1-5.74-2.52,8.59,8.59,0,0,1-2.24-5.88V20.58H5.6A5.3,5.3,0,0,1,1.68,19,4.94,4.94,0,0,1,0,15.26V5.32A4.94,4.94,0,0,1,1.68,1.54,5.3,5.3,0,0,1,5.6,0H30.24q5.18,0,5.18,5.6V33h9.66A29.45,29.45,0,0,1,67.48,43ZM52.64,74.48a11.63,11.63,0,0,0,3.5-8.54,12.11,12.11,0,0,0-3.5-8.68,11.08,11.08,0,0,0-8.26-3.64h-9v24.5h9A10.52,10.52,0,0,0,52.64,74.48Z"/></g></g></svg>