<svg xmlns="http://www.w3.org/2000/svg" viewBox="0 0 88.06 112.56"><title>Ресурс 18</title><g id="Слой_2" data-name="Слой 2"><g id="Слой_1-2" data-name="Слой 1"><path d="M86.52,80.5a5.3,5.3,0,0,1,1.54,3.92v22.82A5.14,5.14,0,0,1,86.52,111a5.77,5.77,0,0,1-4.06,1.54h-9A5.3,5.3,0,0,1,69.58,111a4.94,4.94,0,0,1-1.68-3.78V99.4H5.32a4.94,4.94,0,0,1-3.78-1.68A5.3,5.3,0,0,1,0,93.8V5.6A5.77,5.77,0,0,1,1.54,1.54,5.14,5.14,0,0,1,5.32,0h9.94q5.18,0,5.18,5.6V78.4H52.08V5.6Q52.08,0,57.26,0H67.2A5.14,5.14,0,0,1,71,1.54,5.77,5.77,0,0,1,72.52,5.6V78.82H82.88A4.51,4.51,0,0,1,86.52,80.5Z"/></g></g></svg>