<svg xmlns="http://www.w3.org/2000/svg" viewBox="0 0 61.46 98.7"><title>Ресурс 24</title><g id="Слой_2" data-name="Слой 2"><g id="Слой_1-2" data-name="Слой 1"><path d="M52.36,55.72A29.45,29.45,0,0,1,30,65.66H20.3V93.1q0,5.59-5.18,5.6H5.18Q0,98.7,0,93.1V8.4A8.59,8.59,0,0,1,2.24,2.52,7.62,7.62,0,0,1,8,0H30q13,0,22.4,9.94a32.16,32.16,0,0,1,9.1,22.82A32.32,32.32,0,0,1,52.36,55.72ZM37.52,24.22a10.52,10.52,0,0,0-8.26-3.64h-9v24.5h9a11.08,11.08,0,0,0,8.26-3.64A12.11,12.11,0,0,0,41,32.76,11.63,11.63,0,0,0,37.52,24.22Z"/></g></g></svg>