<svg xmlns="http://www.w3.org/2000/svg" viewBox="0 0 55.44 98.7"><title>Ресурс 6</title><g id="Слой_2" data-name="Слой 2"><g id="Слой_1-2" data-name="Слой 1"><path d="M20.44,20.86V37.38H41.86a5.14,5.14,0,0,1,3.78,1.54,5.61,5.61,0,0,1,1.54,3.92v9.38a5.61,5.61,0,0,1-1.54,3.92,5.14,5.14,0,0,1-3.78,1.54H20.44V77.84H50.12a4.94,4.94,0,0,1,3.78,1.68,5.3,5.3,0,0,1,1.54,3.92V93.1a5.77,5.77,0,0,1-1.54,4.06,5.14,5.14,0,0,1-3.78,1.54H8a7.62,7.62,0,0,1-5.74-2.52A8.59,8.59,0,0,1,0,90.3V8.4A8,8,0,0,1,2.38,2.52,6.93,6.93,0,0,1,8,0H50.12A5.14,5.14,0,0,1,53.9,1.54,5.77,5.77,0,0,1,55.44,5.6v9.66a5.3,5.3,0,0,1-1.54,3.92,4.94,4.94,0,0,1-3.78,1.68Z"/></g></g></svg>