<svg xmlns="http://www.w3.org/2000/svg" viewBox="0 0 63.28 99.26"><title>Ресурс 2</title><g id="Слой_2" data-name="Слой 2"><g id="Слой_1-2" data-name="Слой 1"><path d="M57.68,50.26q5.59,6.85,5.6,17.78a31.08,31.08,0,0,1-8.4,21.84A27.89,27.89,0,0,1,33.6,99.26H8a7.62,7.62,0,0,1-5.74-2.52A8.59,8.59,0,0,1,0,90.86V8.54a8.78,8.78,0,0,1,2.24-6A7.62,7.62,0,0,1,8,0H50.4a4.94,4.94,0,0,1,3.78,1.68A5.3,5.3,0,0,1,55.72,5.6v9.8a5.3,5.3,0,0,1-1.54,3.92A4.94,4.94,0,0,1,50.4,21h-30V37.38H33.6a27.89,27.89,0,0,1,21.28,9.38A32.77,32.77,0,0,1,57.68,50.26ZM40.32,75.74A11.06,11.06,0,0,0,43,68,9.82,9.82,0,0,0,32.9,57.82H20.16v21H32.9A9.29,9.29,0,0,0,40.32,75.74Z"/></g></g></svg>