<svg xmlns="http://www.w3.org/2000/svg" viewBox="0 0 72.1 125.02"><title>Ресурс 31</title><g id="Слой_2" data-name="Слой 2"><g id="Слой_1-2" data-name="Слой 1"><path d="M70.28,28.28A6.26,6.26,0,0,1,72.1,32.9v86.52a5.77,5.77,0,0,1-1.54,4.06A5.14,5.14,0,0,1,66.78,125H58q-5.33,0-5.32-5.6V67.2L22.12,121.8a6.41,6.41,0,0,1-5.6,3.22H6.3a5.86,5.86,0,0,1-4.48-2A6.26,6.26,0,0,1,0,118.44V31.92q0-5.59,5.18-5.6h9a5.14,5.14,0,0,1,3.78,1.54,5.77,5.77,0,0,1,1.54,4.06V84.28L50.12,29.54a6.41,6.41,0,0,1,5.6-3.22H65.8A5.86,5.86,0,0,1,70.28,28.28Zm-52.5-14.7q-3.08,0-3.08-2.94V2.94Q14.7,0,17.78,0H54.32a2.6,2.6,0,0,1,2.94,2.94v7.7a2.6,2.6,0,0,1-2.94,2.94Z"/></g></g></svg>