<svg xmlns="http://www.w3.org/2000/svg" viewBox="0 0 75.04 98.7"><title>Ресурс 19</title><g id="Слой_2" data-name="Слой 2"><g id="Слой_1-2" data-name="Слой 1"><path d="M74.06,9,49.56,49.84,73.5,89.74a5.72,5.72,0,0,1,1,3.36A5.38,5.38,0,0,1,72.8,97a5.08,5.08,0,0,1-3.92,1.68H58a5.37,5.37,0,0,1-4.9-2.8L37.52,70,22,95.9a5.37,5.37,0,0,1-4.9,2.8H6.3A5.53,5.53,0,0,1,2.24,97,5.08,5.08,0,0,1,.56,93.1a5.72,5.72,0,0,1,1-3.36l23.94-39.9L1,9A4.77,4.77,0,0,1,0,5.74,5.53,5.53,0,0,1,1.68,1.68,5.08,5.08,0,0,1,5.6,0H16.52a5.37,5.37,0,0,1,4.9,2.8l16.1,26.88L53.76,2.8A4.89,4.89,0,0,1,58.52,0H69.44a5.08,5.08,0,0,1,3.92,1.68A5.53,5.53,0,0,1,75,5.74,4.77,4.77,0,0,1,74.06,9Z"/></g></g></svg>