<svg xmlns="http://www.w3.org/2000/svg" viewBox="0 0 70.84 102.06"><title>Ресурс 26</title><g id="Слой_2" data-name="Слой 2"><g id="Слой_1-2" data-name="Слой 1"><path d="M70.84,64.82a37.08,37.08,0,0,1-10.08,26,33.19,33.19,0,0,1-25.34,11.2,33.19,33.19,0,0,1-25.34-11.2A37.08,37.08,0,0,1,0,64.82V37.1A36.63,36.63,0,0,1,10.22,11.2Q20.59,0,35.42,0T60.76,11.2A36.89,36.89,0,0,1,70.84,37.1ZM50.4,37.1a16.38,16.38,0,0,0-4.2-11.2,13.94,13.94,0,0,0-10.78-5,13.52,13.52,0,0,0-10.64,5,16.43,16.43,0,0,0-4.34,11.2V64.82A16.43,16.43,0,0,0,24.78,76,13.66,13.66,0,0,0,35.42,81.2a13.94,13.94,0,0,0,10.78-5,16.92,16.92,0,0,0,4.2-11.34Z"/></g></g></svg>