<svg xmlns="http://www.w3.org/2000/svg" viewBox="0 0 63.42 102.06"><title>Ресурс 10</title><g id="Слой_2" data-name="Слой 2"><g id="Слой_1-2" data-name="Слой 1"><path d="M53.62,11.34a37.83,37.83,0,0,1,9.8,25.9V65a37.5,37.5,0,0,1-9.94,25.9q-10.21,11.2-24.78,11.2-17.08,0-27.16-12.46a5.82,5.82,0,0,1-1.4-4.06A7.66,7.66,0,0,1,1.68,81.2L7.28,75a5.49,5.49,0,0,1,3.92-1.82,4.32,4.32,0,0,1,2,.42,4.74,4.74,0,0,1,2.24,1.68A16.92,16.92,0,0,0,28.7,81.2a12.7,12.7,0,0,0,9.94-4.9A16.61,16.61,0,0,0,43,65V61.32H22.54a5.3,5.3,0,0,1-3.92-1.54A4.94,4.94,0,0,1,16.94,56V46.06a4.94,4.94,0,0,1,1.68-3.78,5.3,5.3,0,0,1,3.92-1.54H43v-3.5a16.78,16.78,0,0,0-4.34-11.48,12.7,12.7,0,0,0-9.94-4.9,16.92,16.92,0,0,0-13.3,5.88,4.74,4.74,0,0,1-2.24,1.68,4,4,0,0,1-1.82.42,5.64,5.64,0,0,1-1.82-.28A7.34,7.34,0,0,1,7.28,27L1.82,21A6.75,6.75,0,0,1,0,16.52a6.14,6.14,0,0,1,1.26-3.78l.14-.14A34.11,34.11,0,0,1,28.7,0Q43.4,0,53.62,11.34Z"/></g></g></svg>