<svg xmlns="http://www.w3.org/2000/svg" viewBox="0 0 63.28 98.7"><title>Ресурс 33</title><g id="Слой_2" data-name="Слой 2"><g id="Слой_1-2" data-name="Слой 1"><path d="M51.94,44.66Q63.28,51.8,63.28,67.48a31.08,31.08,0,0,1-8.4,21.84A27.89,27.89,0,0,1,33.6,98.7H5.6a5.3,5.3,0,0,1-3.92-1.54A4.94,4.94,0,0,1,0,93.38v-9.8A4.94,4.94,0,0,1,1.68,79.8,5.3,5.3,0,0,1,5.6,78.26H32.9a9.29,9.29,0,0,0,7.42-3.08A11.06,11.06,0,0,0,43,67.48,9.82,9.82,0,0,0,32.9,57.26H16.52a5.3,5.3,0,0,1-3.92-1.54,4.94,4.94,0,0,1-1.68-3.78V43A4.94,4.94,0,0,1,12.6,39.2a5.3,5.3,0,0,1,3.92-1.54H28.7a9,9,0,0,0,6.16-2.52,8.1,8.1,0,0,0,2.8-6A8.61,8.61,0,0,0,35,22.82a8.84,8.84,0,0,0-6.3-2.52h-19a5.3,5.3,0,0,1-3.92-1.54A4.94,4.94,0,0,1,4.06,15V5.32A4.94,4.94,0,0,1,5.74,1.54,5.3,5.3,0,0,1,9.66,0H29.82A26.38,26.38,0,0,1,49.7,8.54a28.46,28.46,0,0,1,8.12,20.3A24,24,0,0,1,51.94,44.66Z"/></g></g></svg>