<svg xmlns="http://www.w3.org/2000/svg" viewBox="0 0 93.94 98.7"><title>Ресурс 12</title><g id="Слой_2" data-name="Слой 2"><g id="Слой_1-2" data-name="Слой 1"><path d="M30,33A29.45,29.45,0,0,1,52.36,43a32.32,32.32,0,0,1,9.1,23,32.16,32.16,0,0,1-9.1,22.82Q43,98.71,30,98.7H8a7.62,7.62,0,0,1-5.74-2.52A8.59,8.59,0,0,1,0,90.3V5.6Q0,0,5.18,0h9.94Q20.3,0,20.3,5.6V33Zm7.56,41.44A11.63,11.63,0,0,0,41,65.94a12.11,12.11,0,0,0-3.5-8.68,11.08,11.08,0,0,0-8.26-3.64h-9v24.5h9A10.52,10.52,0,0,0,37.52,74.48ZM92.4,1.68A5.3,5.3,0,0,1,93.94,5.6V93.1A5.3,5.3,0,0,1,92.4,97a4.94,4.94,0,0,1-3.78,1.68H78.68A4.94,4.94,0,0,1,74.9,97a5.3,5.3,0,0,1-1.54-3.92V5.6A5.3,5.3,0,0,1,74.9,1.68,4.94,4.94,0,0,1,78.68,0h9.94A4.94,4.94,0,0,1,92.4,1.68Z"/></g></g></svg>