<svg xmlns="http://www.w3.org/2000/svg" viewBox="0 0 63.14 98.7"><title>Ресурс 8</title><g id="Слой_2" data-name="Слой 2"><g id="Слой_1-2" data-name="Слой 1"><path d="M0,93.1A5.87,5.87,0,0,1,.84,90L19.6,59.36A28.65,28.65,0,0,1,6.72,48a30.89,30.89,0,0,1-4.9-16.94A30.19,30.19,0,0,1,10.5,9.24,28.67,28.67,0,0,1,32.06,0h23.1a6.93,6.93,0,0,1,5.6,2.52A8,8,0,0,1,63.14,8.4V93.1a5.77,5.77,0,0,1-1.54,4.06,5.14,5.14,0,0,1-3.78,1.54H48a5.14,5.14,0,0,1-3.78-1.54A5.77,5.77,0,0,1,42.7,93.1V62.16h-2L21,95.62a6.16,6.16,0,0,1-5.46,3.08H5.46a5.3,5.3,0,0,1-3.92-1.54A5.77,5.77,0,0,1,0,93.1ZM22.4,31.22A10.05,10.05,0,0,0,32.76,41.58H42.7v-21H32.76a10.23,10.23,0,0,0-7.56,2.94A11,11,0,0,0,22.4,31.22Z"/></g></g></svg>