<svg xmlns="http://www.w3.org/2000/svg" viewBox="0 0 70.98 98.7"><title>Ресурс 17</title><g id="Слой_2" data-name="Слой 2"><g id="Слой_1-2" data-name="Слой 1"><path d="M69.44,1.54A5.3,5.3,0,0,1,71,5.46V93.1A5.3,5.3,0,0,1,69.44,97a4.94,4.94,0,0,1-3.78,1.68H55.72A4.94,4.94,0,0,1,51.94,97,5.3,5.3,0,0,1,50.4,93.1V62.58A33.86,33.86,0,0,1,35.56,65.8a32.24,32.24,0,0,1-26-12.18Q0,42.28,0,26V5.46A5.3,5.3,0,0,1,1.54,1.54,4.68,4.68,0,0,1,5.18,0h9.94A5.14,5.14,0,0,1,18.9,1.54a5.61,5.61,0,0,1,1.54,3.92V26.74q0,8.27,4.06,13a13.85,13.85,0,0,0,11.06,4.9A13.33,13.33,0,0,0,46.9,39.2a18.58,18.58,0,0,0,3.5-9.52V5.6a5.3,5.3,0,0,1,1.54-3.92l.14-.14.14-.14A4.76,4.76,0,0,1,55.72,0H68Z"/></g></g></svg>